<svg width="230" height="137" viewBox="0 0 230 137" fill="none" xmlns="http://www.w3.org/2000/svg">
<g filter="url(#filter0_n_1_84)">
<path d="M114.839 82C163.992 82 203.839 63.6437 203.839 41C203.839 18.3563 163.992 0 114.839 0C65.6852 0 25.8386 18.3563 25.8386 41C25.8386 63.6437 65.6852 82 114.839 82Z" fill="#230443"/>
<path d="M114.839 1.5C139.249 1.5 161.275 6.06124 177.143 13.3711C193.139 20.7401 202.339 30.6174 202.339 41C202.339 51.3826 193.139 61.2599 177.143 68.6289C161.275 75.9388 139.249 80.5 114.839 80.5C90.4282 80.5 68.4017 75.9388 52.5339 68.6289C36.5377 61.2599 27.3386 51.3826 27.3386 41C27.3386 30.6174 36.5377 20.7401 52.5339 13.3711C68.4017 6.06124 90.4282 1.5 114.839 1.5Z" stroke="black" stroke-width="3"/>
</g>
<g filter="url(#filter1_d_1_84)">
<mask id="path-3-inside-1_1_84" fill="white">
<path d="M52.863 60.7241L52.5213 57.6631L62.3601 56.5648L62.7019 59.6257L52.863 60.7241ZM71.1398 59.1125C70.4669 59.1623 69.9111 59.0049 69.4724 58.6403C69.0471 58.26 68.8096 57.7334 68.7598 57.0606C68.709 56.3731 68.8664 55.8173 69.2321 55.3932C69.6124 54.9679 70.139 54.7304 70.8118 54.6807C71.4993 54.6298 72.0551 54.7872 72.4792 55.1529C72.9034 55.5186 73.1409 56.0452 73.1917 56.7326C73.2415 57.4055 73.0841 57.9613 72.7195 58.4C72.3538 58.8242 71.8272 59.0617 71.1398 59.1125ZM84.4366 58.2883C83.7627 58.322 83.2108 58.1514 82.7809 57.7764C82.3649 57.386 82.14 56.8539 82.1063 56.1801C82.0719 55.4916 82.2425 54.9397 82.6183 54.5245C83.0086 54.1084 83.5407 53.8836 84.2146 53.8499C84.903 53.8154 85.4549 53.9861 85.8702 54.3618C86.2855 54.7375 86.5104 55.2696 86.5448 55.9581C86.5785 56.6319 86.4078 57.1838 86.0328 57.6138C85.6571 58.029 85.125 58.2539 84.4366 58.2883ZM111.02 57.5098C110.346 57.5173 109.801 57.3254 109.386 56.934C108.985 56.5277 108.781 55.9873 108.774 55.3127C108.766 54.6234 108.958 54.0786 109.349 53.6782C109.756 53.2776 110.296 53.0736 110.971 53.0661C111.66 53.0585 112.205 53.2504 112.605 53.642C113.006 54.0336 113.21 54.574 113.217 55.2633C113.225 55.9379 113.033 56.4827 112.641 56.8978C112.25 57.2982 111.709 57.5022 111.02 57.5098ZM137.595 57.6877C136.92 57.6714 136.383 57.4604 135.982 57.0547C135.596 56.6346 135.411 56.0873 135.427 55.4128C135.444 54.7237 135.655 54.1859 136.06 53.7996C136.48 53.4136 137.027 53.2287 137.702 53.245C138.391 53.2616 138.929 53.4726 139.315 53.878C139.702 54.2834 139.886 54.8307 139.87 55.5199C139.854 56.1943 139.643 56.7321 139.237 57.1331C138.831 57.5194 138.284 57.7043 137.595 57.6877ZM150.893 58.1471C150.219 58.1168 149.686 57.8946 149.293 57.4805C148.916 57.0525 148.743 56.5015 148.773 55.8275C148.804 55.1388 149.026 54.6056 149.44 54.2278C149.868 53.8507 150.419 53.6773 151.093 53.7076C151.782 53.7386 152.315 53.9608 152.693 54.3742C153.07 54.7876 153.244 55.3386 153.213 56.0272C153.182 56.7012 152.96 57.2344 152.546 57.6269C152.133 58.0047 151.582 58.1781 150.893 58.1471ZM164.192 58.9024C163.519 58.8562 162.991 58.6215 162.609 58.1984C162.242 57.7616 162.081 57.2066 162.128 56.5335C162.175 55.8458 162.409 55.318 162.832 54.95C163.268 54.583 163.823 54.4226 164.496 54.4688C165.184 54.516 165.712 54.7506 166.08 55.1728C166.448 55.595 166.608 56.1499 166.561 56.8376C166.515 57.5107 166.28 58.0386 165.857 58.4212C165.435 58.7891 164.88 58.9495 164.192 58.9024ZM172.612 59.362L172.925 56.298L182.774 57.3056L182.46 60.3696L172.612 59.362Z"/>
</mask>
<path d="M52.863 60.7241L52.5213 57.6631L62.3601 56.5648L62.7019 59.6257L52.863 60.7241ZM71.1398 59.1125C70.4669 59.1623 69.9111 59.0049 69.4724 58.6403C69.0471 58.26 68.8096 57.7334 68.7598 57.0606C68.709 56.3731 68.8664 55.8173 69.2321 55.3932C69.6124 54.9679 70.139 54.7304 70.8118 54.6807C71.4993 54.6298 72.0551 54.7872 72.4792 55.1529C72.9034 55.5186 73.1409 56.0452 73.1917 56.7326C73.2415 57.4055 73.0841 57.9613 72.7195 58.4C72.3538 58.8242 71.8272 59.0617 71.1398 59.1125ZM84.4366 58.2883C83.7627 58.322 83.2108 58.1514 82.7809 57.7764C82.3649 57.386 82.14 56.8539 82.1063 56.1801C82.0719 55.4916 82.2425 54.9397 82.6183 54.5245C83.0086 54.1084 83.5407 53.8836 84.2146 53.8499C84.903 53.8154 85.4549 53.9861 85.8702 54.3618C86.2855 54.7375 86.5104 55.2696 86.5448 55.9581C86.5785 56.6319 86.4078 57.1838 86.0328 57.6138C85.6571 58.029 85.125 58.2539 84.4366 58.2883ZM111.02 57.5098C110.346 57.5173 109.801 57.3254 109.386 56.934C108.985 56.5277 108.781 55.9873 108.774 55.3127C108.766 54.6234 108.958 54.0786 109.349 53.6782C109.756 53.2776 110.296 53.0736 110.971 53.0661C111.66 53.0585 112.205 53.2504 112.605 53.642C113.006 54.0336 113.21 54.574 113.217 55.2633C113.225 55.9379 113.033 56.4827 112.641 56.8978C112.25 57.2982 111.709 57.5022 111.02 57.5098ZM137.595 57.6877C136.92 57.6714 136.383 57.4604 135.982 57.0547C135.596 56.6346 135.411 56.0873 135.427 55.4128C135.444 54.7237 135.655 54.1859 136.06 53.7996C136.48 53.4136 137.027 53.2287 137.702 53.245C138.391 53.2616 138.929 53.4726 139.315 53.878C139.702 54.2834 139.886 54.8307 139.87 55.5199C139.854 56.1943 139.643 56.7321 139.237 57.1331C138.831 57.5194 138.284 57.7043 137.595 57.6877ZM150.893 58.1471C150.219 58.1168 149.686 57.8946 149.293 57.4805C148.916 57.0525 148.743 56.5015 148.773 55.8275C148.804 55.1388 149.026 54.6056 149.44 54.2278C149.868 53.8507 150.419 53.6773 151.093 53.7076C151.782 53.7386 152.315 53.9608 152.693 54.3742C153.07 54.7876 153.244 55.3386 153.213 56.0272C153.182 56.7012 152.96 57.2344 152.546 57.6269C152.133 58.0047 151.582 58.1781 150.893 58.1471ZM164.192 58.9024C163.519 58.8562 162.991 58.6215 162.609 58.1984C162.242 57.7616 162.081 57.2066 162.128 56.5335C162.175 55.8458 162.409 55.318 162.832 54.95C163.268 54.583 163.823 54.4226 164.496 54.4688C165.184 54.516 165.712 54.7506 166.08 55.1728C166.448 55.595 166.608 56.1499 166.561 56.8376C166.515 57.5107 166.28 58.0386 165.857 58.4212C165.435 58.7891 164.88 58.9495 164.192 58.9024ZM172.612 59.362L172.925 56.298L182.774 57.3056L182.46 60.3696L172.612 59.362Z" fill="white"/>
<path d="M52.863 60.7241L51.8692 60.8351L51.9801 61.8289L52.9739 61.7179L52.863 60.7241ZM52.5213 57.6631L52.4103 56.6693L51.4165 56.7802L51.5274 57.7741L52.5213 57.6631ZM62.3601 56.5648L63.354 56.4538L63.243 55.46L62.2492 55.5709L62.3601 56.5648ZM62.7019 59.6257L62.8128 60.6196L63.8066 60.5086L63.6957 59.5148L62.7019 59.6257ZM52.863 60.7241L53.8568 60.6132L53.5151 57.5522L52.5213 57.6631L51.5274 57.7741L51.8692 60.8351L52.863 60.7241ZM52.5213 57.6631L52.6322 58.657L62.4711 57.5586L62.3601 56.5648L62.2492 55.5709L52.4103 56.6693L52.5213 57.6631ZM62.3601 56.5648L61.3663 56.6757L61.708 59.7367L62.7019 59.6257L63.6957 59.5148L63.354 56.4538L62.3601 56.5648ZM62.7019 59.6257L62.5909 58.6319L52.752 59.7303L52.863 60.7241L52.9739 61.7179L62.8128 60.6196L62.7019 59.6257ZM69.4724 58.6403L68.8057 59.3856L68.8192 59.3978L68.8332 59.4094L69.4724 58.6403ZM68.7598 57.0606L67.7626 57.1343L68.7598 57.0606ZM69.2321 55.3932L68.4867 54.7265L68.4807 54.7333L68.4747 54.7402L69.2321 55.3932ZM72.7195 58.4L73.4768 59.053L73.4828 59.0461L73.4886 59.0392L72.7195 58.4ZM71.1398 59.1125L71.066 58.1153C70.6009 58.1497 70.3154 58.0406 70.1115 57.8712L69.4724 58.6403L68.8332 59.4094C69.5069 59.9692 70.3329 60.175 71.2135 60.1098L71.1398 59.1125ZM69.4724 58.6403L70.139 57.8949C69.9414 57.7182 69.7915 57.4518 69.7571 56.9868L68.7598 57.0606L67.7626 57.1343C67.8277 58.015 68.1528 58.8017 68.8057 59.3856L69.4724 58.6403ZM68.7598 57.0606L69.7571 56.9868C69.721 56.499 69.8352 56.225 69.9895 56.0462L69.2321 55.3932L68.4747 54.7402C67.8976 55.4096 67.6969 56.2472 67.7626 57.1343L68.7598 57.0606ZM69.2321 55.3932L69.9775 56.0598C70.1542 55.8622 70.4206 55.7123 70.8856 55.6779L70.8118 54.6807L70.738 53.6834C69.8574 53.7485 69.0707 54.0736 68.4867 54.7265L69.2321 55.3932ZM70.8118 54.6807L70.8856 55.6779C71.3734 55.6418 71.6473 55.756 71.8262 55.9103L72.4792 55.1529L73.1322 54.3955C72.4628 53.8184 71.6252 53.6177 70.738 53.6834L70.8118 54.6807ZM72.4792 55.1529L71.8262 55.9103C72.0051 56.0645 72.1584 56.3186 72.1945 56.8064L73.1917 56.7326L74.189 56.6588C74.1234 55.7717 73.8016 54.9727 73.1322 54.3955L72.4792 55.1529ZM73.1917 56.7326L72.1945 56.8064C72.2289 57.2714 72.1198 57.557 71.9504 57.7609L72.7195 58.4L73.4886 59.0392C74.0484 58.3655 74.2542 57.5395 74.189 56.6588L73.1917 56.7326ZM72.7195 58.4L71.9621 57.747C71.8079 57.9259 71.5538 58.0792 71.066 58.1153L71.1398 59.1125L71.2135 60.1098C72.1007 60.0442 72.8997 59.7224 73.4768 59.053L72.7195 58.4ZM82.7809 57.7764L82.0966 58.5056L82.1099 58.5181L82.1236 58.53L82.7809 57.7764ZM82.6183 54.5245L81.889 53.8402L81.8828 53.8468L81.8767 53.8536L82.6183 54.5245ZM84.2146 53.8499L84.1646 52.8511L84.2146 53.8499ZM86.5448 55.9581L85.546 56.0081L86.5448 55.9581ZM86.0328 57.6138L86.7744 58.2847L86.7805 58.2779L86.7865 58.2711L86.0328 57.6138ZM84.4366 58.2883L84.3866 57.2896C83.9209 57.3129 83.638 57.197 83.4382 57.0228L82.7809 57.7764L82.1236 58.53C82.7837 59.1058 83.6046 59.3312 84.4865 59.2871L84.4366 58.2883ZM82.7809 57.7764L83.4652 57.0472C83.2719 56.8658 83.1284 56.5959 83.1051 56.1301L82.1063 56.1801L81.1076 56.23C81.1517 57.112 81.4579 57.9063 82.0966 58.5056L82.7809 57.7764ZM82.1063 56.1801L83.1051 56.1301C83.0807 55.6416 83.2014 55.3705 83.3598 55.1954L82.6183 54.5245L81.8767 53.8536C81.2837 54.509 81.0631 55.3416 81.1076 56.23L82.1063 56.1801ZM82.6183 54.5245L83.3475 55.2087C83.5289 55.0154 83.7988 54.8719 84.2645 54.8486L84.2146 53.8499L84.1646 52.8511C83.2827 52.8952 82.4884 53.2014 81.889 53.8402L82.6183 54.5245ZM84.2146 53.8499L84.2645 54.8486C84.753 54.8242 85.0242 54.9449 85.1993 55.1034L85.8702 54.3618L86.5411 53.6203C85.8857 53.0273 85.053 52.8067 84.1646 52.8511L84.2146 53.8499ZM85.8702 54.3618L85.1993 55.1034C85.3745 55.2618 85.5216 55.5195 85.546 56.0081L86.5448 55.9581L87.5435 55.9082C87.4991 55.0197 87.1965 54.2133 86.5411 53.6203L85.8702 54.3618ZM86.5448 55.9581L85.546 56.0081C85.5693 56.4738 85.4535 56.7567 85.2792 56.9564L86.0328 57.6138L86.7865 58.2711C87.3622 57.611 87.5876 56.7901 87.5435 55.9082L86.5448 55.9581ZM86.0328 57.6138L85.2913 56.9428C85.1328 57.118 84.8751 57.2651 84.3866 57.2896L84.4366 58.2883L84.4865 59.2871C85.3749 59.2427 86.1814 58.9401 86.7744 58.2847L86.0328 57.6138ZM111.02 57.5098L111.009 56.5099L111.02 57.5098ZM109.386 56.934L108.674 57.6361L108.686 57.649L108.7 57.6615L109.386 56.934ZM108.774 55.3127L107.774 55.3238L108.774 55.3127ZM109.349 53.6782L108.647 52.9661L108.641 52.9725L108.635 52.979L109.349 53.6782ZM110.971 53.0661L110.96 52.0662L110.971 53.0661ZM112.605 53.642L113.304 52.9271L112.605 53.642ZM113.217 55.2633L112.217 55.2744L113.217 55.2633ZM112.641 56.8978L113.356 57.597L113.363 57.5905L113.369 57.5839L112.641 56.8978ZM111.02 57.5098L111.009 56.5099C110.543 56.5151 110.265 56.3883 110.072 56.2065L109.386 56.934L108.7 57.6615C109.337 58.2624 110.148 58.5196 111.031 58.5098L111.02 57.5098ZM109.386 56.934L110.098 56.2319C109.912 56.0431 109.779 55.7678 109.774 55.3016L108.774 55.3127L107.774 55.3238C107.783 56.2068 108.059 57.0124 108.674 57.6361L109.386 56.934ZM108.774 55.3127L109.774 55.3016C109.768 54.8125 109.899 54.5462 110.064 54.3774L109.349 53.6782L108.635 52.979C108.017 53.6109 107.764 54.4343 107.774 55.3238L108.774 55.3127ZM109.349 53.6782L110.052 54.3903C110.24 54.2042 110.516 54.0712 110.982 54.0661L110.971 53.0661L110.96 52.0662C110.077 52.076 109.271 52.3511 108.647 52.9661L109.349 53.6782ZM110.971 53.0661L110.982 54.0661C111.471 54.0606 111.737 54.1918 111.906 54.3569L112.605 53.642L113.304 52.9271C112.673 52.3091 111.849 52.0563 110.96 52.0662L110.971 53.0661ZM112.605 53.642L111.906 54.3569C112.075 54.5221 112.212 54.7853 112.217 55.2744L113.217 55.2633L114.217 55.2522C114.207 54.3627 113.936 53.5451 113.304 52.9271L112.605 53.642ZM113.217 55.2633L112.217 55.2744C112.223 55.7407 112.096 56.0188 111.914 56.2117L112.641 56.8978L113.369 57.5839C113.97 56.9466 114.227 56.1351 114.217 55.2522L113.217 55.2633ZM112.641 56.8978L111.926 56.1986C111.761 56.3674 111.498 56.5045 111.009 56.5099L111.02 57.5098L111.031 58.5098C111.921 58.4999 112.738 58.2289 113.356 57.597L112.641 56.8978ZM137.595 57.6877L137.571 58.6874L137.595 57.6877ZM135.982 57.0547L135.245 57.7313L135.258 57.7446L135.27 57.7576L135.982 57.0547ZM135.427 55.4128L136.427 55.4369L135.427 55.4128ZM136.06 53.7996L135.384 53.0632L135.377 53.0694L135.37 53.0757L136.06 53.7996ZM137.702 53.245L137.726 52.2453L137.702 53.245ZM139.87 55.5199L138.87 55.4958L139.87 55.5199ZM139.237 57.1331L139.927 57.857L139.933 57.8507L139.94 57.8444L139.237 57.1331ZM137.595 57.6877L137.619 56.688C137.153 56.6768 136.879 56.5403 136.693 56.3517L135.982 57.0547L135.27 57.7576C135.886 58.3806 136.688 58.6661 137.571 58.6874L137.595 57.6877ZM135.982 57.0547L136.718 56.3781C136.539 56.1829 136.416 55.9031 136.427 55.4369L135.427 55.4128L134.427 55.3887C134.406 56.2715 134.653 57.0863 135.245 57.7313L135.982 57.0547ZM135.427 55.4128L136.427 55.4369C136.439 54.9479 136.579 54.6865 136.75 54.5235L136.06 53.7996L135.37 53.0757C134.73 53.6854 134.449 54.4995 134.427 55.3887L135.427 55.4128ZM136.06 53.7996L136.737 54.536C136.932 54.3566 137.212 54.2335 137.678 54.2447L137.702 53.245L137.726 52.2453C136.843 52.224 136.029 52.4706 135.384 53.0632L136.06 53.7996ZM137.702 53.245L137.678 54.2447C138.167 54.2565 138.428 54.3969 138.591 54.5679L139.315 53.878L140.039 53.1882C139.429 52.5483 138.615 52.2667 137.726 52.2453L137.702 53.245ZM139.315 53.878L138.591 54.5679C138.754 54.7389 138.882 55.0068 138.87 55.4958L139.87 55.5199L140.87 55.5439C140.891 54.6547 140.649 53.828 140.039 53.1882L139.315 53.878ZM139.87 55.5199L138.87 55.4958C138.859 55.9619 138.722 56.2355 138.534 56.4218L139.237 57.1331L139.94 57.8444C140.563 57.2287 140.848 56.4267 140.87 55.5439L139.87 55.5199ZM139.237 57.1331L138.547 56.4091C138.376 56.5721 138.108 56.6998 137.619 56.688L137.595 57.6877L137.571 58.6874C138.46 58.7088 139.287 58.4668 139.927 57.857L139.237 57.1331ZM150.893 58.1471L150.848 59.1461L150.893 58.1471ZM149.293 57.4805L148.543 58.1416L148.555 58.1552L148.568 58.1684L149.293 57.4805ZM149.44 54.2278L148.779 53.4775L148.772 53.4835L148.765 53.4896L149.44 54.2278ZM152.546 57.6269L153.221 58.365L153.228 58.3589L153.234 58.3527L152.546 57.6269ZM150.893 58.1471L150.938 57.1481C150.472 57.1271 150.202 56.985 150.019 56.7926L149.293 57.4805L148.568 58.1684C149.17 58.8042 149.966 59.1064 150.848 59.1461L150.893 58.1471ZM149.293 57.4805L150.044 56.8194C149.869 56.6206 149.751 56.3382 149.772 55.8724L148.773 55.8275L147.774 55.7825C147.735 56.6647 147.964 57.4844 148.543 58.1416L149.293 57.4805ZM148.773 55.8275L149.772 55.8724C149.794 55.3838 149.94 55.1253 150.114 54.966L149.44 54.2278L148.765 53.4896C148.113 54.0859 147.814 54.8939 147.774 55.7825L148.773 55.8275ZM149.44 54.2278L150.101 54.9781C150.3 54.8029 150.582 54.6856 151.048 54.7066L151.093 53.7076L151.138 52.7086C150.256 52.6689 149.436 52.8985 148.779 53.4775L149.44 54.2278ZM151.093 53.7076L151.048 54.7066C151.537 54.7286 151.795 54.8744 151.954 55.0488L152.693 54.3742L153.431 53.6995C152.834 53.0471 152.026 52.7486 151.138 52.7086L151.093 53.7076ZM152.693 54.3742L151.954 55.0488C152.114 55.2231 152.236 55.4936 152.214 55.9823L153.213 56.0272L154.212 56.0722C154.252 55.1835 154.027 54.352 153.431 53.6995L152.693 54.3742ZM153.213 56.0272L152.214 55.9823C152.193 56.4481 152.051 56.7187 151.858 56.9011L152.546 57.6269L153.234 58.3527C153.87 57.7501 154.172 56.9543 154.212 56.0722L153.213 56.0272ZM152.546 57.6269L151.872 56.8887C151.697 57.048 151.427 57.1701 150.938 57.1481L150.893 58.1471L150.848 59.1461C151.737 59.1861 152.568 58.9613 153.221 58.365L152.546 57.6269ZM162.609 58.1984L161.843 58.8416L161.855 58.8555L161.867 58.869L162.609 58.1984ZM162.832 54.95L162.188 54.1843L162.181 54.1902L162.174 54.1962L162.832 54.95ZM164.496 54.4688L164.428 55.4664L164.496 54.4688ZM166.561 56.8376L167.559 56.9061L166.561 56.8376ZM165.857 58.4212L166.514 59.175L166.521 59.169L166.528 59.1629L165.857 58.4212ZM164.192 58.9024L164.261 57.9047C163.796 57.8728 163.528 57.7243 163.351 57.5277L162.609 58.1984L161.867 58.869C162.454 59.5187 163.243 59.8396 164.124 59.9L164.192 58.9024ZM162.609 58.1984L163.374 57.5551C163.204 57.3522 163.093 57.0672 163.125 56.602L162.128 56.5335L161.13 56.4651C161.069 57.3461 161.28 58.171 161.843 58.8416L162.609 58.1984ZM162.128 56.5335L163.125 56.602C163.159 56.114 163.311 55.859 163.489 55.7038L162.832 54.95L162.174 54.1962C161.508 54.7769 161.191 55.5776 161.13 56.4651L162.128 56.5335ZM162.832 54.95L163.475 55.7156C163.678 55.5451 163.963 55.4345 164.428 55.4664L164.496 54.4688L164.565 53.4711C163.684 53.4107 162.859 53.6209 162.188 54.1843L162.832 54.95ZM164.496 54.4688L164.428 55.4664C164.916 55.4999 165.171 55.6518 165.326 55.8299L166.08 55.1728L166.834 54.5157C166.253 53.8495 165.452 53.532 164.565 53.4711L164.496 54.4688ZM166.08 55.1728L165.326 55.8299C165.481 56.0079 165.597 56.2812 165.563 56.7692L166.561 56.8376L167.559 56.9061C167.62 56.0186 167.415 55.182 166.834 54.5157L166.08 55.1728ZM166.561 56.8376L165.563 56.7692C165.532 57.2344 165.383 57.5016 165.186 57.6794L165.857 58.4212L166.528 59.1629C167.177 58.5755 167.498 57.787 167.559 56.9061L166.561 56.8376ZM165.857 58.4212L165.2 57.6673C165.022 57.8225 164.749 57.9382 164.261 57.9047L164.192 58.9024L164.124 59.9C165.011 59.9609 165.848 59.7558 166.514 59.175L165.857 58.4212ZM172.612 59.362L171.617 59.2602L171.515 60.255L172.51 60.3568L172.612 59.362ZM172.925 56.298L173.027 55.3032L172.032 55.2014L171.93 56.1962L172.925 56.298ZM182.774 57.3056L183.769 57.4074L183.87 56.4126L182.876 56.3108L182.774 57.3056ZM182.46 60.3696L182.359 61.3644L183.353 61.4662L183.455 60.4714L182.46 60.3696ZM172.612 59.362L173.607 59.4638L173.92 56.3998L172.925 56.298L171.93 56.1962L171.617 59.2602L172.612 59.362ZM172.925 56.298L172.823 57.2928L182.672 58.3004L182.774 57.3056L182.876 56.3108L173.027 55.3032L172.925 56.298ZM182.774 57.3056L181.779 57.2038L181.466 60.2678L182.46 60.3696L183.455 60.4714L183.769 57.4074L182.774 57.3056ZM182.46 60.3696L182.562 59.3748L172.714 58.3672L172.612 59.362L172.51 60.3568L182.359 61.3644L182.46 60.3696Z" fill="black" mask="url(#path-3-inside-1_1_84)"/>
</g>
<g filter="url(#filter2_d_1_84)">
<mask id="path-5-outside-2_1_84" maskUnits="userSpaceOnUse" x="36.8386" y="10" width="155" height="42" fill="black">
<rect fill="white" x="36.8386" y="10" width="155" height="42"/>
<path d="M51.1094 49.8701L38.9037 24.4484L47.1522 20.488L48.9701 24.2743L44.7782 26.2869L53.3481 44.1362L57.54 42.1235L59.3579 45.9097L51.1094 49.8701ZM64.011 40.569L58.1384 19.4711L62.4736 18.2644L67.2199 35.3161L75.7458 32.943L76.872 36.9891L64.011 40.569ZM80.9539 36.1602L77.7283 14.4991L91.0811 12.5107L91.6467 16.3088L82.6558 17.6476L83.3805 22.514L91.3328 21.3298L91.8984 25.1279L83.9461 26.3121L84.7502 31.7126L93.7411 30.3737L94.3067 34.1718L80.9539 36.1602ZM105.367 33.7321C103.829 33.8063 102.478 33.6111 101.314 33.1465C100.15 32.682 99.236 31.9952 98.5715 31.0861C97.907 30.1771 97.5439 29.0833 97.4823 27.8048L101.977 27.5882C102.013 28.3273 102.321 28.9032 102.901 29.3157C103.501 29.7073 104.29 29.8795 105.269 29.8323C106.208 29.7871 106.927 29.5422 107.426 29.0977C107.945 28.6522 108.187 28.0598 108.151 27.3207C108.121 26.6814 107.894 26.1417 107.473 25.7015C107.051 25.2613 106.477 24.9786 105.75 24.8534L103.508 24.4509C101.629 24.1009 100.142 23.3616 99.0459 22.233C97.9694 21.0835 97.3897 19.6498 97.3069 17.9318C97.2453 16.6533 97.4815 15.5306 98.0156 14.5638C98.5687 13.576 99.3721 12.7964 100.426 12.225C101.48 11.6537 102.746 11.3323 104.224 11.2611C106.461 11.1533 108.256 11.6275 109.609 12.6836C110.98 13.7188 111.711 15.1753 111.801 17.0531L107.307 17.2697C107.273 16.5705 106.997 16.0332 106.478 15.6577C105.979 15.2813 105.271 15.1152 104.352 15.1595C103.493 15.2009 102.843 15.4324 102.403 15.8541C101.962 16.2558 101.758 16.8162 101.793 17.5354C101.824 18.1746 102.03 18.7153 102.412 19.1575C102.813 19.5787 103.356 19.8528 104.043 19.9799L106.407 20.4067C108.365 20.7528 109.872 21.4811 110.927 22.5916C111.981 23.6822 112.55 25.1164 112.636 26.8943C112.698 28.1729 112.432 29.3169 111.84 30.3266C111.268 31.3353 110.426 32.1368 109.313 32.731C108.22 33.3243 106.905 33.658 105.367 33.7321ZM123.299 33.7274C121.84 33.658 120.585 33.328 119.531 32.7373C118.479 32.1266 117.677 31.3176 117.124 30.3102C116.592 29.2838 116.358 28.1113 116.42 26.7928L116.862 17.5033C116.925 16.1848 117.269 15.0499 117.895 14.0985C118.542 13.1282 119.417 12.3989 120.522 11.9108C121.627 11.4028 122.909 11.1834 124.367 11.2527C125.846 11.323 127.101 11.663 128.133 12.2728C129.186 12.8634 129.979 13.672 130.511 14.6984C131.063 15.7058 131.308 16.8688 131.246 18.1873L130.804 27.4768C130.741 28.7953 130.387 29.9397 129.74 30.9101C129.114 31.8615 128.248 32.5912 127.143 33.0992C126.058 33.5883 124.777 33.7976 123.299 33.7274ZM123.484 29.8318C124.383 29.8745 125.063 29.6766 125.524 29.238C126.007 28.7804 126.268 28.1221 126.309 27.263L126.751 17.9735C126.793 17.0945 126.605 16.4148 126.187 15.9345C125.769 15.4541 125.101 15.192 124.182 15.1483C123.263 15.1046 122.573 15.3021 122.112 15.7407C121.65 16.1793 121.399 16.838 121.357 17.7171L120.915 27.0066C120.874 27.8656 121.062 28.5453 121.479 29.0456C121.917 29.527 122.585 29.789 123.484 29.8318ZM134.361 34.164L137.591 12.5035L151.537 14.583L150.917 18.7371L141.363 17.3124L140.646 22.1192L149.429 23.4289L148.81 27.5829L140.086 26.2821L138.812 34.8277L134.361 34.164ZM156.571 38.3108L161.304 21.2553L155.956 19.7713L157.079 15.7242L172.111 19.8956L170.988 23.9426L165.64 22.4586L160.907 39.5141L156.571 38.3108ZM169.337 45.9104L171.156 42.1246L175.347 44.1382L183.921 26.2909L179.73 24.2773L181.548 20.4915L189.796 24.4537L177.585 49.8726L169.337 45.9104Z"/>
</mask>
<path d="M51.1094 49.8701L38.9037 24.4484L47.1522 20.488L48.9701 24.2743L44.7782 26.2869L53.3481 44.1362L57.54 42.1235L59.3579 45.9097L51.1094 49.8701ZM64.011 40.569L58.1384 19.4711L62.4736 18.2644L67.2199 35.3161L75.7458 32.943L76.872 36.9891L64.011 40.569ZM80.9539 36.1602L77.7283 14.4991L91.0811 12.5107L91.6467 16.3088L82.6558 17.6476L83.3805 22.514L91.3328 21.3298L91.8984 25.1279L83.9461 26.3121L84.7502 31.7126L93.7411 30.3737L94.3067 34.1718L80.9539 36.1602ZM105.367 33.7321C103.829 33.8063 102.478 33.6111 101.314 33.1465C100.15 32.682 99.236 31.9952 98.5715 31.0861C97.907 30.1771 97.5439 29.0833 97.4823 27.8048L101.977 27.5882C102.013 28.3273 102.321 28.9032 102.901 29.3157C103.501 29.7073 104.29 29.8795 105.269 29.8323C106.208 29.7871 106.927 29.5422 107.426 29.0977C107.945 28.6522 108.187 28.0598 108.151 27.3207C108.121 26.6814 107.894 26.1417 107.473 25.7015C107.051 25.2613 106.477 24.9786 105.75 24.8534L103.508 24.4509C101.629 24.1009 100.142 23.3616 99.0459 22.233C97.9694 21.0835 97.3897 19.6498 97.3069 17.9318C97.2453 16.6533 97.4815 15.5306 98.0156 14.5638C98.5687 13.576 99.3721 12.7964 100.426 12.225C101.48 11.6537 102.746 11.3323 104.224 11.2611C106.461 11.1533 108.256 11.6275 109.609 12.6836C110.98 13.7188 111.711 15.1753 111.801 17.0531L107.307 17.2697C107.273 16.5705 106.997 16.0332 106.478 15.6577C105.979 15.2813 105.271 15.1152 104.352 15.1595C103.493 15.2009 102.843 15.4324 102.403 15.8541C101.962 16.2558 101.758 16.8162 101.793 17.5354C101.824 18.1746 102.03 18.7153 102.412 19.1575C102.813 19.5787 103.356 19.8528 104.043 19.9799L106.407 20.4067C108.365 20.7528 109.872 21.4811 110.927 22.5916C111.981 23.6822 112.55 25.1164 112.636 26.8943C112.698 28.1729 112.432 29.3169 111.84 30.3266C111.268 31.3353 110.426 32.1368 109.313 32.731C108.22 33.3243 106.905 33.658 105.367 33.7321ZM123.299 33.7274C121.84 33.658 120.585 33.328 119.531 32.7373C118.479 32.1266 117.677 31.3176 117.124 30.3102C116.592 29.2838 116.358 28.1113 116.42 26.7928L116.862 17.5033C116.925 16.1848 117.269 15.0499 117.895 14.0985C118.542 13.1282 119.417 12.3989 120.522 11.9108C121.627 11.4028 122.909 11.1834 124.367 11.2527C125.846 11.323 127.101 11.663 128.133 12.2728C129.186 12.8634 129.979 13.672 130.511 14.6984C131.063 15.7058 131.308 16.8688 131.246 18.1873L130.804 27.4768C130.741 28.7953 130.387 29.9397 129.74 30.9101C129.114 31.8615 128.248 32.5912 127.143 33.0992C126.058 33.5883 124.777 33.7976 123.299 33.7274ZM123.484 29.8318C124.383 29.8745 125.063 29.6766 125.524 29.238C126.007 28.7804 126.268 28.1221 126.309 27.263L126.751 17.9735C126.793 17.0945 126.605 16.4148 126.187 15.9345C125.769 15.4541 125.101 15.192 124.182 15.1483C123.263 15.1046 122.573 15.3021 122.112 15.7407C121.65 16.1793 121.399 16.838 121.357 17.7171L120.915 27.0066C120.874 27.8656 121.062 28.5453 121.479 29.0456C121.917 29.527 122.585 29.789 123.484 29.8318ZM134.361 34.164L137.591 12.5035L151.537 14.583L150.917 18.7371L141.363 17.3124L140.646 22.1192L149.429 23.4289L148.81 27.5829L140.086 26.2821L138.812 34.8277L134.361 34.164ZM156.571 38.3108L161.304 21.2553L155.956 19.7713L157.079 15.7242L172.111 19.8956L170.988 23.9426L165.64 22.4586L160.907 39.5141L156.571 38.3108ZM169.337 45.9104L171.156 42.1246L175.347 44.1382L183.921 26.2909L179.73 24.2773L181.548 20.4915L189.796 24.4537L177.585 49.8726L169.337 45.9104Z" fill="white"/>
<path d="M51.1094 49.8701L50.2079 50.3029L50.6407 51.2044L51.5422 50.7716L51.1094 49.8701ZM38.9037 24.4484L38.4709 23.5469L37.5694 23.9797L38.0022 24.8812L38.9037 24.4484ZM47.1522 20.488L48.0537 20.0552L47.6209 19.1537L46.7194 19.5866L47.1522 20.488ZM48.9701 24.2743L49.4029 25.1757L50.3044 24.7429L49.8716 23.8414L48.9701 24.2743ZM44.7782 26.2869L44.3454 25.3854L43.4439 25.8182L43.8767 26.7197L44.7782 26.2869ZM53.3481 44.1362L52.4467 44.569L52.8795 45.4705L53.781 45.0376L53.3481 44.1362ZM57.54 42.1235L58.4415 41.6907L58.0087 40.7892L57.1072 41.222L57.54 42.1235ZM59.3579 45.9097L59.7907 46.8112L60.6922 46.3784L60.2594 45.4769L59.3579 45.9097ZM51.1094 49.8701L52.0108 49.4373L39.8052 24.0156L38.9037 24.4484L38.0022 24.8812L50.2079 50.3029L51.1094 49.8701ZM38.9037 24.4484L39.3365 25.3499L47.5851 21.3895L47.1522 20.488L46.7194 19.5866L38.4709 23.5469L38.9037 24.4484ZM47.1522 20.488L46.2508 20.9209L48.0686 24.7071L48.9701 24.2743L49.8716 23.8414L48.0537 20.0552L47.1522 20.488ZM48.9701 24.2743L48.5373 23.3728L44.3454 25.3854L44.7782 26.2869L45.211 27.1884L49.4029 25.1757L48.9701 24.2743ZM44.7782 26.2869L43.8767 26.7197L52.4467 44.569L53.3481 44.1362L54.2496 43.7033L45.6797 25.8541L44.7782 26.2869ZM53.3481 44.1362L53.781 45.0376L57.9728 43.025L57.54 42.1235L57.1072 41.222L52.9153 43.2347L53.3481 44.1362ZM57.54 42.1235L56.6385 42.5564L58.4564 46.3426L59.3579 45.9097L60.2594 45.4769L58.4415 41.6907L57.54 42.1235ZM59.3579 45.9097L58.9251 45.0083L50.6765 48.9686L51.1094 49.8701L51.5422 50.7716L59.7907 46.8112L59.3579 45.9097ZM64.011 40.569L63.0476 40.8372L63.3158 41.8005L64.2791 41.5324L64.011 40.569ZM58.1384 19.4711L57.8702 18.5077L56.9069 18.7759L57.175 19.7392L58.1384 19.4711ZM62.4736 18.2644L63.4369 17.9962L63.1688 17.0328L62.2054 17.301L62.4736 18.2644ZM67.2199 35.3161L66.2565 35.5843L66.5247 36.5477L67.4881 36.2795L67.2199 35.3161ZM75.7458 32.943L76.7092 32.6748L76.441 31.7114L75.4776 31.9796L75.7458 32.943ZM76.872 36.9891L77.1402 37.9525L78.1036 37.6844L77.8354 36.721L76.872 36.9891ZM64.011 40.569L64.9744 40.3009L59.1018 19.2029L58.1384 19.4711L57.175 19.7392L63.0476 40.8372L64.011 40.569ZM58.1384 19.4711L58.4065 20.4345L62.7417 19.2278L62.4736 18.2644L62.2054 17.301L57.8702 18.5077L58.1384 19.4711ZM62.4736 18.2644L61.5102 18.5325L66.2565 35.5843L67.2199 35.3161L68.1833 35.048L63.4369 17.9962L62.4736 18.2644ZM67.2199 35.3161L67.4881 36.2795L76.0139 33.9063L75.7458 32.943L75.4776 31.9796L66.9518 34.3528L67.2199 35.3161ZM75.7458 32.943L74.7824 33.2111L75.9087 37.2573L76.872 36.9891L77.8354 36.721L76.7092 32.6748L75.7458 32.943ZM76.872 36.9891L76.6039 36.0258L63.7428 39.6056L64.011 40.569L64.2791 41.5324L77.1402 37.9525L76.872 36.9891ZM80.9539 36.1602L79.9648 36.3075L80.1121 37.2966L81.1012 37.1493L80.9539 36.1602ZM77.7283 14.4991L77.5811 13.51L76.592 13.6573L76.7392 14.6463L77.7283 14.4991ZM91.0811 12.5107L92.0702 12.3634L91.9229 11.3743L90.9338 11.5216L91.0811 12.5107ZM91.6467 16.3088L91.794 17.2979L92.7831 17.1506L92.6358 16.1615L91.6467 16.3088ZM82.6558 17.6476L82.5085 16.6586L81.5194 16.8058L81.6667 17.7949L82.6558 17.6476ZM83.3805 22.514L82.3914 22.6613L82.5387 23.6504L83.5278 23.5031L83.3805 22.514ZM91.3328 21.3298L92.3219 21.1825L92.1746 20.1934L91.1855 20.3407L91.3328 21.3298ZM91.8984 25.1279L92.0457 26.117L93.0347 25.9697L92.8875 24.9806L91.8984 25.1279ZM83.9461 26.3121L83.7988 25.323L82.8097 25.4703L82.957 26.4594L83.9461 26.3121ZM84.7502 31.7126L83.7611 31.8598L83.9084 32.8489L84.8975 32.7017L84.7502 31.7126ZM93.7411 30.3737L94.7302 30.2264L94.5829 29.2373L93.5938 29.3846L93.7411 30.3737ZM94.3067 34.1718L94.454 35.1609L95.4431 35.0137L95.2958 34.0246L94.3067 34.1718ZM80.9539 36.1602L81.943 36.0129L78.7174 14.3518L77.7283 14.4991L76.7392 14.6463L79.9648 36.3075L80.9539 36.1602ZM77.7283 14.4991L77.8756 15.4882L91.2284 13.4998L91.0811 12.5107L90.9338 11.5216L77.5811 13.51L77.7283 14.4991ZM91.0811 12.5107L90.092 12.658L90.6576 16.4561L91.6467 16.3088L92.6358 16.1615L92.0702 12.3634L91.0811 12.5107ZM91.6467 16.3088L91.4994 15.3197L82.5085 16.6586L82.6558 17.6476L82.8031 18.6367L91.794 17.2979L91.6467 16.3088ZM82.6558 17.6476L81.6667 17.7949L82.3914 22.6613L83.3805 22.514L84.3696 22.3667L83.6449 17.5004L82.6558 17.6476ZM83.3805 22.514L83.5278 23.5031L91.4801 22.3189L91.3328 21.3298L91.1855 20.3407L83.2332 21.5249L83.3805 22.514ZM91.3328 21.3298L90.3437 21.4771L90.9093 25.2752L91.8984 25.1279L92.8875 24.9806L92.3219 21.1825L91.3328 21.3298ZM91.8984 25.1279L91.7511 24.1388L83.7988 25.323L83.9461 26.3121L84.0933 27.3012L92.0457 26.117L91.8984 25.1279ZM83.9461 26.3121L82.957 26.4594L83.7611 31.8598L84.7502 31.7126L85.7393 31.5653L84.9351 26.1648L83.9461 26.3121ZM84.7502 31.7126L84.8975 32.7017L93.8884 31.3628L93.7411 30.3737L93.5938 29.3846L84.6029 30.7235L84.7502 31.7126ZM93.7411 30.3737L92.752 30.521L93.3176 34.3191L94.3067 34.1718L95.2958 34.0246L94.7302 30.2264L93.7411 30.3737ZM94.3067 34.1718L94.1594 33.1828L80.8066 35.1711L80.9539 36.1602L81.1012 37.1493L94.454 35.1609L94.3067 34.1718ZM101.314 33.1465L101.685 32.2178L101.685 32.2178L101.314 33.1465ZM98.5715 31.0861L97.7642 31.6763L97.7642 31.6763L98.5715 31.0861ZM97.4823 27.8048L97.4342 26.8059L96.4353 26.8541L96.4835 27.8529L97.4823 27.8048ZM101.977 27.5882L102.976 27.54L102.928 26.5412L101.929 26.5893L101.977 27.5882ZM102.901 29.3157L102.322 30.1308L102.338 30.1422L102.354 30.1529L102.901 29.3157ZM107.426 29.0977L106.775 28.3388L106.768 28.3448L106.761 28.3509L107.426 29.0977ZM108.151 27.3207L107.153 27.3688L108.151 27.3207ZM105.75 24.8534L105.573 25.8377L105.58 25.8389L105.75 24.8534ZM103.508 24.4509L103.325 25.434L103.331 25.4351L103.508 24.4509ZM99.0459 22.233L98.3161 22.9166L98.3222 22.9232L98.3284 22.9296L99.0459 22.233ZM98.0156 14.5638L97.1431 14.0752L97.1403 14.0802L98.0156 14.5638ZM100.426 12.225L99.9491 11.346L99.9491 11.346L100.426 12.225ZM104.224 11.2611L104.176 10.2623L104.224 11.2611ZM109.609 12.6836L108.993 13.4717L109 13.4768L109.006 13.4817L109.609 12.6836ZM111.801 17.0531L111.85 18.0519L112.848 18.0038L112.8 17.005L111.801 17.0531ZM107.307 17.2697L106.308 17.3178L106.356 18.3167L107.355 18.2685L107.307 17.2697ZM106.478 15.6577L105.876 16.4559L105.884 16.4619L105.892 16.4677L106.478 15.6577ZM104.352 15.1595L104.303 14.1606L104.352 15.1595ZM102.403 15.8541L103.076 16.5935L103.085 16.585L103.095 16.5762L102.403 15.8541ZM101.793 17.5354L102.792 17.4873L101.793 17.5354ZM102.412 19.1575L101.655 19.811L101.671 19.8293L101.687 19.8468L102.412 19.1575ZM104.043 19.9799L103.861 20.9632L103.866 20.964L104.043 19.9799ZM106.407 20.4067L106.229 21.3907L106.233 21.3914L106.407 20.4067ZM110.927 22.5916L110.202 23.2803L110.208 23.2865L110.927 22.5916ZM112.636 26.8943L111.637 26.9425L112.636 26.8943ZM111.84 30.3266L110.978 29.8208L110.974 29.827L110.97 29.8333L111.84 30.3266ZM109.313 32.731L108.842 31.8489L108.836 31.8522L109.313 32.731ZM105.367 33.7321L105.319 32.7333C103.891 32.8021 102.688 32.6185 101.685 32.2178L101.314 33.1465L100.943 34.0753C102.267 34.6036 103.766 34.8105 105.415 34.731L105.367 33.7321ZM101.314 33.1465L101.685 32.2178C100.675 31.8148 99.9203 31.2367 99.3788 30.496L98.5715 31.0861L97.7642 31.6763C98.5518 32.7537 99.6253 33.5492 100.943 34.0753L101.314 33.1465ZM98.5715 31.0861L99.3788 30.496C98.8451 29.7659 98.5347 28.8672 98.4811 27.7566L97.4823 27.8048L96.4835 27.8529C96.5532 29.2994 96.9689 30.5883 97.7642 31.6763L98.5715 31.0861ZM97.4823 27.8048L97.5304 28.8036L102.025 28.587L101.977 27.5882L101.929 26.5893L97.4342 26.8059L97.4823 27.8048ZM101.977 27.5882L100.978 27.6363C101.028 28.668 101.48 29.5326 102.322 30.1308L102.901 29.3157L103.481 28.5005C103.161 28.2737 102.997 27.9866 102.976 27.54L101.977 27.5882ZM102.901 29.3157L102.354 30.1529C103.185 30.6953 104.204 30.8848 105.317 30.8312L105.269 29.8323L105.221 28.8335C104.376 28.8742 103.817 28.7193 103.448 28.4785L102.901 29.3157ZM105.269 29.8323L105.317 30.8312C106.393 30.7793 107.364 30.4924 108.091 29.8445L107.426 29.0977L106.761 28.3509C106.49 28.592 106.023 28.7949 105.221 28.8335L105.269 29.8323ZM107.426 29.0977L108.077 29.8565C108.852 29.1919 109.199 28.2909 109.15 27.2726L108.151 27.3207L107.153 27.3688C107.175 27.8287 107.039 28.1124 106.775 28.3388L107.426 29.0977ZM108.151 27.3207L109.15 27.2726C109.108 26.4055 108.792 25.6333 108.195 25.0097L107.473 25.7015L106.75 26.3932C106.997 26.65 107.133 26.9573 107.153 27.3688L108.151 27.3207ZM107.473 25.7015L108.195 25.0097C107.596 24.3848 106.812 24.0216 105.92 23.8679L105.75 24.8534L105.58 25.8389C106.141 25.9356 106.506 26.1377 106.75 26.3932L107.473 25.7015ZM105.75 24.8534L105.927 23.8692L103.685 23.4666L103.508 24.4509L103.331 25.4351L105.573 25.8377L105.75 24.8534ZM103.508 24.4509L103.691 23.4678C101.971 23.1474 100.686 22.487 99.7634 21.5365L99.0459 22.233L98.3284 22.9296C99.5968 24.2362 101.287 25.0544 103.325 25.434L103.508 24.4509ZM99.0459 22.233L99.7758 21.5495C98.8768 20.5896 98.3782 19.3881 98.3057 17.8836L97.3069 17.9318L96.308 17.9799C96.4011 19.9115 97.0619 21.5775 98.3161 22.9166L99.0459 22.233ZM97.3069 17.9318L98.3057 17.8836C98.2516 16.7604 98.46 15.8274 98.8909 15.0473L98.0156 14.5638L97.1403 14.0802C96.503 15.2338 96.239 16.5461 96.308 17.9799L97.3069 17.9318ZM98.0156 14.5638L98.8881 15.0523C99.3433 14.2394 100.005 13.5909 100.903 13.1041L100.426 12.225L99.9491 11.346C98.7395 12.0019 97.7941 12.9126 97.1431 14.0752L98.0156 14.5638ZM100.426 12.225L100.903 13.1041C101.797 12.6191 102.909 12.3256 104.272 12.26L104.224 11.2611L104.176 10.2623C102.582 10.3391 101.162 10.6882 99.9491 11.346L100.426 12.225ZM104.224 11.2611L104.272 12.26C106.344 12.1601 107.881 12.6032 108.993 13.4717L109.609 12.6836L110.224 11.8954C108.631 10.6517 106.578 10.1465 104.176 10.2623L104.224 11.2611ZM109.609 12.6836L109.006 13.4817C110.116 14.3199 110.725 15.4882 110.803 17.1012L111.801 17.0531L112.8 17.005C112.697 14.8624 111.843 13.1177 110.211 11.8854L109.609 12.6836ZM111.801 17.0531L111.753 16.0543L107.258 16.2709L107.307 17.2697L107.355 18.2685L111.85 18.0519L111.801 17.0531ZM107.307 17.2697L108.305 17.2216C108.259 16.2513 107.854 15.4194 107.064 14.8477L106.478 15.6577L105.892 16.4677C106.139 16.6469 106.287 16.8897 106.308 17.3178L107.307 17.2697ZM106.478 15.6577L107.081 14.8596C106.324 14.2889 105.349 14.1103 104.303 14.1606L104.352 15.1595L104.4 16.1583C105.192 16.1201 105.634 16.2737 105.876 16.4559L106.478 15.6577ZM104.352 15.1595L104.303 14.1606C103.302 14.2089 102.385 14.4861 101.711 15.1319L102.403 15.8541L103.095 16.5762C103.301 16.3787 103.684 16.1928 104.4 16.1583L104.352 15.1595ZM102.403 15.8541L101.73 15.1147C101.022 15.7589 100.748 16.6343 100.794 17.5835L101.793 17.5354L102.792 17.4873C102.768 16.9981 102.901 16.7527 103.076 16.5935L102.403 15.8541ZM101.793 17.5354L100.794 17.5835C100.835 18.4232 101.113 19.1833 101.655 19.811L102.412 19.1575L103.169 18.504C102.947 18.2474 102.813 17.926 102.792 17.4873L101.793 17.5354ZM102.412 19.1575L101.687 19.8468C102.261 20.4495 103.01 20.8057 103.861 20.9632L104.043 19.9799L104.225 18.9966C103.703 18.8999 103.364 18.7079 103.136 18.4682L102.412 19.1575ZM104.043 19.9799L103.866 20.964L106.229 21.3907L106.407 20.4067L106.584 19.4226L104.221 18.9958L104.043 19.9799ZM106.407 20.4067L106.233 21.3914C108.044 21.7114 109.333 22.3655 110.202 23.2802L110.927 22.5916L111.652 21.903C110.411 20.5966 108.687 19.7941 106.581 19.4219L106.407 20.4067ZM110.927 22.5916L110.208 23.2865C111.064 24.1729 111.561 25.3624 111.637 26.9425L112.636 26.8943L113.635 26.8462C113.54 24.8704 112.897 23.1914 111.646 21.8968L110.927 22.5916ZM112.636 26.8943L111.637 26.9425C111.69 28.0459 111.462 28.9942 110.978 29.8208L111.84 30.3266L112.703 30.8325C113.402 29.6397 113.705 28.2998 113.635 26.8462L112.636 26.8943ZM111.84 30.3266L110.97 29.8333C110.5 30.6628 109.803 31.3358 108.842 31.849L109.313 32.731L109.784 33.6131C111.049 32.9378 112.036 32.0078 112.71 30.82L111.84 30.3266ZM109.313 32.731L108.836 31.8522C107.903 32.3587 106.742 32.6647 105.319 32.7333L105.367 33.7321L105.415 34.731C107.068 34.6513 108.538 34.2899 109.79 33.6099L109.313 32.731ZM119.531 32.7373L119.029 33.6022L119.036 33.6059L119.042 33.6095L119.531 32.7373ZM117.124 30.3102L116.236 30.7703L116.242 30.7808L116.247 30.7913L117.124 30.3102ZM117.895 14.0985L117.063 13.5439L117.059 13.5489L117.895 14.0985ZM120.522 11.9108L120.926 12.8255L120.933 12.8225L120.939 12.8194L120.522 11.9108ZM124.367 11.2527L124.32 12.2516L124.367 11.2527ZM128.133 12.2728L127.625 13.1338L127.634 13.1395L127.644 13.1449L128.133 12.2728ZM130.511 14.6984L129.623 15.1585L129.628 15.169L129.634 15.1795L130.511 14.6984ZM131.246 18.1873L130.247 18.1398L131.246 18.1873ZM130.804 27.4768L131.803 27.5243L130.804 27.4768ZM129.74 30.9101L128.908 30.3555L128.904 30.3605L129.74 30.9101ZM127.143 33.0992L127.554 34.0108L127.56 34.0078L127.143 33.0992ZM123.484 29.8318L123.436 30.8306L123.484 29.8318ZM125.524 29.238L124.836 28.5126L124.835 28.5132L125.524 29.238ZM126.751 17.9735L125.752 17.926L126.751 17.9735ZM126.187 15.9345L126.942 15.2783L126.942 15.2783L126.187 15.9345ZM122.112 15.7407L122.801 16.4654L122.112 15.7407ZM121.479 29.0456L120.711 29.6856L120.724 29.7023L120.739 29.7184L121.479 29.0456ZM123.299 33.7274L123.346 32.7285C122.011 32.665 120.913 32.3656 120.021 31.8651L119.531 32.7373L119.042 33.6095C120.256 34.2904 121.67 34.651 123.251 34.7262L123.299 33.7274ZM119.531 32.7373L120.033 31.8724C119.129 31.3476 118.461 30.6674 118.001 29.8292L117.124 30.3102L116.247 30.7913C116.893 31.9678 117.829 32.9057 119.029 33.6022L119.531 32.7373ZM117.124 30.3102L118.012 29.8502C117.572 29.0013 117.364 28.0082 117.419 26.8403L116.42 26.7928L115.421 26.7453C115.352 28.2145 115.612 29.5663 116.236 30.7703L117.124 30.3102ZM116.42 26.7928L117.419 26.8403L117.861 17.5508L116.862 17.5033L115.863 17.4558L115.421 26.7453L116.42 26.7928ZM116.862 17.5033L117.861 17.5508C117.916 16.3824 118.218 15.4274 118.73 14.6482L117.895 14.0985L117.059 13.5489C116.32 14.6724 115.933 15.9872 115.863 17.4558L116.862 17.5033ZM117.895 14.0985L118.727 14.6532C119.264 13.8469 119.989 13.2396 120.926 12.8255L120.522 11.9108L120.118 10.9962C118.846 11.5583 117.819 12.4095 117.063 13.5439L117.895 14.0985ZM120.522 11.9108L120.939 12.8194C121.873 12.3904 122.99 12.1884 124.32 12.2516L124.367 11.2527L124.415 10.2539C122.828 10.1784 121.381 10.4151 120.104 11.0022L120.522 11.9108ZM124.367 11.2527L124.32 12.2516C125.673 12.316 126.762 12.6241 127.625 13.1338L128.133 12.2728L128.642 11.4118C127.44 10.702 126.018 10.3301 124.415 10.2539L124.367 11.2527ZM128.133 12.2728L127.644 13.1449C128.535 13.6446 129.185 14.3134 129.623 15.1585L130.511 14.6984L131.398 14.2384C130.773 13.0306 129.838 12.0823 128.622 11.4006L128.133 12.2728ZM130.511 14.6984L129.634 15.1795C130.085 16.0024 130.302 16.9774 130.247 18.1398L131.246 18.1873L132.245 18.2348C132.315 16.7601 132.041 15.4092 131.387 14.2174L130.511 14.6984ZM131.246 18.1873L130.247 18.1398L129.805 27.4293L130.804 27.4768L131.803 27.5243L132.245 18.2348L131.246 18.1873ZM130.804 27.4768L129.805 27.4293C129.75 28.5912 129.441 29.555 128.908 30.3555L129.74 30.9101L130.572 31.4647C131.332 30.3244 131.733 28.9994 131.803 27.5243L130.804 27.4768ZM129.74 30.9101L128.904 30.3605C128.388 31.1446 127.673 31.7552 126.725 32.1906L127.143 33.0992L127.56 34.0078C128.824 33.4272 129.839 32.5783 130.575 31.4597L129.74 30.9101ZM127.143 33.0992L126.732 32.1876C125.822 32.5979 124.705 32.7931 123.346 32.7285L123.299 33.7274L123.251 34.7262C124.849 34.8022 126.295 34.5786 127.554 34.0108L127.143 33.0992ZM123.484 29.8318L123.436 30.8306C124.493 30.8809 125.484 30.6561 126.213 29.9628L125.524 29.238L124.835 28.5132C124.642 28.697 124.273 28.8681 123.531 28.8329L123.484 29.8318ZM125.524 29.238L126.213 29.9634C126.932 29.2808 127.259 28.3487 127.308 27.3105L126.309 27.263L125.31 27.2155C125.278 27.8954 125.081 28.28 124.836 28.5126L125.524 29.238ZM126.309 27.263L127.308 27.3105L127.75 18.021L126.751 17.9735L125.752 17.926L125.31 27.2155L126.309 27.263ZM126.751 17.9735L127.75 18.021C127.799 16.9844 127.584 16.0172 126.942 15.2783L126.187 15.9345L125.432 16.5906C125.625 16.8125 125.786 17.2046 125.752 17.926L126.751 17.9735ZM126.187 15.9345L126.942 15.2783C126.278 14.5148 125.299 14.2003 124.23 14.1495L124.182 15.1483L124.135 16.1472C124.903 16.1838 125.261 16.3933 125.432 16.5906L126.187 15.9345ZM124.182 15.1483L124.23 14.1495C123.161 14.0986 122.156 14.3188 121.423 15.0159L122.112 15.7407L122.801 16.4654C122.99 16.2854 123.366 16.1107 124.135 16.1472L124.182 15.1483ZM122.112 15.7407L121.423 15.0159C120.713 15.6904 120.407 16.633 120.358 17.6696L121.357 17.7171L122.356 17.7646C122.39 17.0431 122.587 16.6681 122.801 16.4654L122.112 15.7407ZM121.357 17.7171L120.358 17.6696L119.916 26.9591L120.915 27.0066L121.914 27.0541L122.356 17.7646L121.357 17.7171ZM120.915 27.0066L119.916 26.9591C119.867 27.986 120.088 28.938 120.711 29.6856L121.479 29.0456L122.247 28.4057C122.037 28.1525 121.881 27.7452 121.914 27.0541L120.915 27.0066ZM121.479 29.0456L120.739 29.7184C121.414 30.4612 122.376 30.7802 123.436 30.8306L123.484 29.8318L123.531 28.8329C122.794 28.7978 122.419 28.5927 122.219 28.3729L121.479 29.0456ZM134.361 34.164L133.372 34.0165L133.225 35.0056L134.214 35.1531L134.361 34.164ZM137.591 12.5035L137.739 11.5144L136.749 11.3669L136.602 12.356L137.591 12.5035ZM151.537 14.583L152.526 14.7305L152.673 13.7414L151.684 13.5939L151.537 14.583ZM150.917 18.7371L150.77 19.7261L151.759 19.8736L151.906 18.8845L150.917 18.7371ZM141.363 17.3124L141.511 16.3233L140.521 16.1758L140.374 17.1649L141.363 17.3124ZM140.646 22.1192L139.657 21.9717L139.51 22.9608L140.499 23.1083L140.646 22.1192ZM149.429 23.4289L150.418 23.5764L150.566 22.5873L149.577 22.4398L149.429 23.4289ZM148.81 27.5829L148.662 28.572L149.651 28.7195L149.799 27.7304L148.81 27.5829ZM140.086 26.2821L140.234 25.2931L139.245 25.1456L139.097 26.1347L140.086 26.2821ZM138.812 34.8277L138.664 35.8167L139.654 35.9642L139.801 34.9751L138.812 34.8277ZM134.361 34.164L135.35 34.3115L138.58 12.651L137.591 12.5035L136.602 12.356L133.372 34.0165L134.361 34.164ZM137.591 12.5035L137.444 13.4925L151.389 15.572L151.537 14.583L151.684 13.5939L137.739 11.5144L137.591 12.5035ZM151.537 14.583L150.548 14.4355L149.928 18.5896L150.917 18.7371L151.906 18.8845L152.526 14.7305L151.537 14.583ZM150.917 18.7371L151.065 17.748L141.511 16.3233L141.363 17.3124L141.216 18.3014L150.77 19.7261L150.917 18.7371ZM141.363 17.3124L140.374 17.1649L139.657 21.9717L140.646 22.1192L141.635 22.2667L142.352 17.4599L141.363 17.3124ZM140.646 22.1192L140.499 23.1083L149.282 24.4179L149.429 23.4289L149.577 22.4398L140.794 21.1302L140.646 22.1192ZM149.429 23.4289L148.44 23.2814L147.821 27.4355L148.81 27.5829L149.799 27.7304L150.418 23.5764L149.429 23.4289ZM148.81 27.5829L148.957 26.5939L140.234 25.2931L140.086 26.2821L139.939 27.2712L148.662 28.572L148.81 27.5829ZM140.086 26.2821L139.097 26.1347L137.823 34.6802L138.812 34.8277L139.801 34.9751L141.075 26.4296L140.086 26.2821ZM138.812 34.8277L138.959 33.8386L134.509 33.1749L134.361 34.164L134.214 35.1531L138.664 35.8167L138.812 34.8277ZM156.571 38.3108L155.607 38.0434L155.34 39.007L156.303 39.2744L156.571 38.3108ZM161.304 21.2553L162.267 21.5227L162.535 20.5591L161.571 20.2917L161.304 21.2553ZM155.956 19.7713L154.992 19.5039L154.725 20.4675L155.688 20.7349L155.956 19.7713ZM157.079 15.7242L157.346 14.7606L156.383 14.4932L156.115 15.4568L157.079 15.7242ZM172.111 19.8956L173.074 20.163L173.342 19.1994L172.378 18.932L172.111 19.8956ZM170.988 23.9426L170.72 24.9062L171.684 25.1736L171.951 24.21L170.988 23.9426ZM165.64 22.4586L165.907 21.495L164.944 21.2276L164.676 22.1912L165.64 22.4586ZM160.907 39.5141L160.64 40.4777L161.603 40.7451L161.871 39.7815L160.907 39.5141ZM156.571 38.3108L157.534 38.5782L162.267 21.5227L161.304 21.2553L160.34 20.9879L155.607 38.0434L156.571 38.3108ZM161.304 21.2553L161.571 20.2917L156.223 18.8077L155.956 19.7713L155.688 20.7349L161.036 22.2189L161.304 21.2553ZM155.956 19.7713L156.919 20.0387L158.042 15.9916L157.079 15.7242L156.115 15.4568L154.992 19.5039L155.956 19.7713ZM157.079 15.7242L156.812 16.6878L171.843 20.8592L172.111 19.8956L172.378 18.932L157.346 14.7606L157.079 15.7242ZM172.111 19.8956L171.147 19.6282L170.024 23.6753L170.988 23.9426L171.951 24.21L173.074 20.163L172.111 19.8956ZM170.988 23.9426L171.255 22.9791L165.907 21.495L165.64 22.4586L165.373 23.4222L170.72 24.9062L170.988 23.9426ZM165.64 22.4586L164.676 22.1912L159.943 39.2467L160.907 39.5141L161.871 39.7815L166.603 22.726L165.64 22.4586ZM160.907 39.5141L161.174 38.5505L156.838 37.3472L156.571 38.3108L156.303 39.2744L160.64 40.4777L160.907 39.5141ZM169.337 45.9104L168.436 45.4773L168.003 46.3787L168.904 46.8117L169.337 45.9104ZM171.156 42.1246L171.589 41.2232L170.687 40.7902L170.254 41.6915L171.156 42.1246ZM175.347 44.1382L174.914 45.0396L175.815 45.4726L176.248 44.5712L175.347 44.1382ZM183.921 26.2909L184.822 26.7239L185.256 25.8225L184.354 25.3895L183.921 26.2909ZM179.73 24.2773L178.828 23.8442L178.395 24.7456L179.297 25.1786L179.73 24.2773ZM181.548 20.4915L181.981 19.5901L181.08 19.1571L180.647 20.0584L181.548 20.4915ZM189.796 24.4537L190.697 24.8867L191.13 23.9854L190.229 23.5523L189.796 24.4537ZM177.585 49.8726L177.152 50.774L178.053 51.207L178.486 50.3056L177.585 49.8726ZM169.337 45.9104L170.238 46.3434L172.057 42.5576L171.156 42.1246L170.254 41.6915L168.436 45.4773L169.337 45.9104ZM171.156 42.1246L170.723 43.026L174.914 45.0396L175.347 44.1382L175.78 43.2368L171.589 41.2232L171.156 42.1246ZM175.347 44.1382L176.248 44.5712L184.822 26.7239L183.921 26.2909L183.02 25.8578L174.446 43.7051L175.347 44.1382ZM183.921 26.2909L184.354 25.3895L180.163 23.3759L179.73 24.2773L179.297 25.1786L183.488 27.1922L183.921 26.2909ZM179.73 24.2773L180.631 24.7103L182.45 20.9245L181.548 20.4915L180.647 20.0584L178.828 23.8442L179.73 24.2773ZM181.548 20.4915L181.115 21.3929L189.363 25.3551L189.796 24.4537L190.229 23.5523L181.981 19.5901L181.548 20.4915ZM189.796 24.4537L188.895 24.0207L176.683 49.4396L177.585 49.8726L178.486 50.3056L190.697 24.8867L189.796 24.4537ZM177.585 49.8726L178.018 48.9712L169.77 45.009L169.337 45.9104L168.904 46.8117L177.152 50.774L177.585 49.8726Z" fill="black" mask="url(#path-5-outside-2_1_84)"/>
</g>
<defs>
<filter id="filter0_n_1_84" x="25.8386" y="0" width="178" height="82" filterUnits="userSpaceOnUse" color-interpolation-filters="sRGB">
<feFlood flood-opacity="0" result="BackgroundImageFix"/>
<feBlend mode="normal" in="SourceGraphic" in2="BackgroundImageFix" result="shape"/>
<feTurbulence type="fractalNoise" baseFrequency="0.011627906933426857 0.011627906933426857" stitchTiles="stitch" numOctaves="3" result="noise" seed="9501" />
<feColorMatrix in="noise" type="luminanceToAlpha" result="alphaNoise" />
<feComponentTransfer in="alphaNoise" result="coloredNoise1">
<feFuncA type="discrete" tableValues="1 1 1 1 1 1 1 1 1 1 1 1 1 1 1 1 1 1 1 1 1 1 1 1 1 1 1 1 1 1 1 1 1 1 1 1 1 1 1 1 1 1 1 1 1 1 1 1 1 1 1 0 0 0 0 0 0 0 0 0 0 0 0 0 0 0 0 0 0 0 0 0 0 0 0 0 0 0 0 0 0 0 0 0 0 0 0 0 0 0 0 0 0 0 0 0 0 0 0 0 "/>
</feComponentTransfer>
<feComposite operator="in" in2="shape" in="coloredNoise1" result="noise1Clipped" />
<feFlood flood-color="rgba(27, 0, 58, 0.41)" result="color1Flood" />
<feComposite operator="in" in2="noise1Clipped" in="color1Flood" result="color1" />
<feMerge result="effect1_noise_1_84">
<feMergeNode in="shape" />
<feMergeNode in="color1" />
</feMerge>
</filter>
<filter id="filter1_d_1_84" x="49.5213" y="50.8853" width="138.253" height="16.2177" filterUnits="userSpaceOnUse" color-interpolation-filters="sRGB">
<feFlood flood-opacity="0" result="BackgroundImageFix"/>
<feColorMatrix in="SourceAlpha" type="matrix" values="0 0 0 0 0 0 0 0 0 0 0 0 0 0 0 0 0 0 127 0" result="hardAlpha"/>
<feOffset dx="1" dy="2"/>
<feGaussianBlur stdDeviation="2"/>
<feComposite in2="hardAlpha" operator="out"/>
<feColorMatrix type="matrix" values="0 0 0 0 0 0 0 0 0 0 0 0 0 0 0 0 0 0 1 0"/>
<feBlend mode="normal" in2="BackgroundImageFix" result="effect1_dropShadow_1_84"/>
<feBlend mode="normal" in="SourceGraphic" in2="effect1_dropShadow_1_84" result="shape"/>
</filter>
<filter id="filter2_d_1_84" x="37.5694" y="10.2403" width="161.561" height="48.9668" filterUnits="userSpaceOnUse" color-interpolation-filters="sRGB">
<feFlood flood-opacity="0" result="BackgroundImageFix"/>
<feColorMatrix in="SourceAlpha" type="matrix" values="0 0 0 0 0 0 0 0 0 0 0 0 0 0 0 0 0 0 127 0" result="hardAlpha"/>
<feOffset dx="4" dy="4"/>
<feGaussianBlur stdDeviation="2"/>
<feComposite in2="hardAlpha" operator="out"/>
<feColorMatrix type="matrix" values="0 0 0 0 0 0 0 0 0 0 0 0 0 0 0 0 0 0 1 0"/>
<feBlend mode="normal" in2="BackgroundImageFix" result="effect1_dropShadow_1_84"/>
<feBlend mode="normal" in="SourceGraphic" in2="effect1_dropShadow_1_84" result="shape"/>
</filter>
</defs>
</svg>
